<svg xmlns="http://www.w3.org/2000/svg" viewBox="0 0 16 16" fill="currentColor">
  <path d="M13.601 2.326A7.854 7.854 0 0 0 8.012 0C3.621 0 .045 3.576.045 7.968a7.93 7.93 0 0 0 1.075 3.995L0 16l4.154-1.088a7.96 7.96 0 0 0 3.857.985h.003c4.39 0 7.966-3.576 7.966-7.968a7.9 7.9 0 0 0-2.379-5.603zM8.014 14.54a6.6 6.6 0 0 1-3.36-.92l-.24-.142-2.465.646.658-2.403-.156-.247a6.56 6.56 0 0 1-1.01-3.505c0-3.63 2.954-6.584 6.586-6.584a6.54 6.54 0 0 1 4.658 1.93 6.54 6.54 0 0 1 1.928 4.654c-.002 3.63-2.956 6.583-6.599 6.583zm3.615-4.923c-.198-.099-1.173-.578-1.355-.644-.182-.066-.314-.099-.446.1-.132.198-.512.644-.628.776-.116.132-.231.149-.429.05-.198-.099-.835-.308-1.59-.983-.587-.523-.983-1.17-1.099-1.368-.116-.198-.012-.305.087-.404.09-.09.198-.231.297-.347.099-.116.132-.198.198-.33.066-.132.033-.248-.017-.347-.05-.099-.446-1.074-.611-1.47-.161-.387-.325-.335-.446-.341l-.38-.007c-.132 0-.347.05-.529.248-.182.198-.694.677-.694 1.652 0 .975.71 1.917.81 2.05.099.132 1.398 2.135 3.388 2.993.473.204.842.326 1.13.417.475.151.907.13 1.249.079.381-.057 1.173-.479 1.339-.941.165-.462.165-.859.116-.941-.05-.083-.182-.132-.38-.231z"/>
</svg>